<svg height='100px' width='100px'  fill="#1a1a1a" xmlns="http://www.w3.org/2000/svg" xmlns:xlink="http://www.w3.org/1999/xlink" version="1.1" x="0px" y="0px" viewBox="0 0 100 100" enable-background="new 0 0 100 100" xml:space="preserve"><path d="M70.8,89.893c0.319,0.539,1.825,0.999,1.661,1.87c0,0.007,0.003,0.014,0.003,0.021c0,2.668-10.305,3.391-22.624,3.391  s-22.306-0.727-22.306-3.394c0-0.007,0.002-0.017,0.002-0.023c-0.153-0.87,1.344-1.327,1.663-1.864  c0.792-1.336-1.357-2.329-1.357-2.329C-0.528,74.371,2.603,47.978,2.603,47.978c0-5.907,13.955-10.907,33.196-12.59  c0.975,1.083,1.904,2.178,2.759,3.288c-18.155,1.172-31.46,4.987-31.46,9.514c0,5.458,19.356,9.885,43.234,9.885  c23.879,0,43.238-4.427,43.238-9.885c0-5.459-19.358-9.885-43.238-9.885c-0.714,0-1.424,0.004-2.131,0.012  c-0.828-0.513-1.57-1.215-2.225-2.236c-0.074-0.111-0.141-0.215-0.208-0.319c-0.171-0.299-0.338-0.604-0.503-0.912  c1.574-0.043,3.171-0.066,4.786-0.066c26.204,0,47.449,5.909,47.449,13.196c0,0.207-0.02,0.408-0.051,0.611  c0.259,4.009,0.544,26.96-25.289,38.975C72.159,87.563,70.008,88.557,70.8,89.893z M20.399,16.282  C16.194,9.749,22.145,5.93,22.145,5.93s5.94-3.812,10.131,2.727c4.963,7.726,7.296,19.283,12.208,27.867v0.001  c0.08,0.126,0.159,0.249,0.249,0.382c4.425,6.896,12.484,1.663,18.438,10.942c0.499,0.776,0.967,1.58,1.399,2.399  c-0.151-0.001-0.302-0.004-0.451-0.008c-4.652-0.107-9.091-1.405-13.491-2.783c-2.629-0.824-5.55-1.663-8.445-2.036  c0.249-1.97,0.083-3.932-1.278-6.055c-0.089-0.138-0.167-0.258-0.254-0.38l0-0.003C34.895,30.942,25.354,24.011,20.399,16.282z   M26.915,10.612c-0.489-0.76-1.498-0.982-2.254-0.498c-0.763,0.491-0.99,1.503-0.499,2.262c0.495,0.76,1.503,0.98,2.263,0.493  C27.183,12.382,27.397,11.373,26.915,10.612z M68.713,49.188c-6.298,5.047-15.268,0.412-21.941-1.327  c-7.528-1.96-16.312-2.93-23.238,1.377c-1.622,1.008-0.29,3.684,1.35,2.664c7.142-4.439,16.225-2.66,23.803-0.41  c7.139,2.12,15.439,5.195,22.011-0.069C72.201,50.217,70.212,47.988,68.713,49.188z"></path></svg>