<svg height='100px' width='100px'  fill="#1a1a1a" xmlns:x="http://ns.adobe.com/Extensibility/1.0/" xmlns:i="http://ns.adobe.com/AdobeIllustrator/10.0/" xmlns:graph="http://ns.adobe.com/Graphs/1.0/" xmlns="http://www.w3.org/2000/svg" xmlns:xlink="http://www.w3.org/1999/xlink" version="1.1" x="0px" y="0px" viewBox="0 0 100 100" style="enable-background:new 0 0 100 100;" xml:space="preserve"><g><g i:extraneous="self"><g><path d="M93.2,8.4H6.8c-2.4,0-4.3,1.9-4.3,4.3v58.6c0,2.3,1.9,4.2,4.3,4.2h34.7v7.8h-7.7c-1.2,0-2.1,1-2.1,2.1v4     c0,1.2,1,2.1,2.1,2.1h32.3c1.2,0,2.1-0.9,2.1-2.1v-4c0-1.2-0.9-2.1-2.1-2.1h-7.7v-7.8h34.8c2.3,0,4.3-1.9,4.3-4.2V12.7     C97.5,10.4,95.6,8.4,93.2,8.4z M50,71c-1.6,0-3-1.3-3-3c0-1.6,1.3-3,3-3c1.7,0,3,1.3,3,3C52.9,69.7,51.6,71,50,71z M90.7,60.6     H9.3V15.2h81.5V60.6z"></path><path d="M47.5,20.8H24.5c-0.3,0-0.6,0.3-0.6,0.6v13.2c0,0.3,0.3,0.6,0.6,0.6h23.1c0.3,0,0.6-0.3,0.6-0.6V21.4     C48.1,21.1,47.9,20.8,47.5,20.8z"></path><path d="M75.5,40.7H52.5c-0.3,0-0.6,0.3-0.6,0.6v13.2c0,0.3,0.3,0.6,0.6,0.6h23.1c0.3,0,0.6-0.3,0.6-0.6V41.3     C76.1,40.9,75.9,40.7,75.5,40.7z"></path><path d="M75.5,30.8H52.5c-0.3,0-0.6,0.3-0.6,0.6v3.3c0,0.3,0.3,0.6,0.6,0.6h23.1c0.3,0,0.6-0.3,0.6-0.6v-3.3     C76.1,31,75.9,30.8,75.5,30.8z"></path><path d="M75.5,20.9H52.5c-0.3,0-0.6,0.3-0.6,0.6v3.3c0,0.3,0.3,0.6,0.6,0.6h23.1c0.3,0,0.6-0.3,0.6-0.6v-3.3     C76.1,21.1,75.9,20.9,75.5,20.9z"></path><path d="M24.5,45.1h23.1c0.3,0,0.6-0.3,0.6-0.6v-3.3c0-0.3-0.3-0.6-0.6-0.6H24.5c-0.3,0-0.6,0.3-0.6,0.6v3.3     C23.9,44.9,24.1,45.1,24.5,45.1z"></path><path d="M24.5,55h23.1c0.3,0,0.6-0.3,0.6-0.6v-3.3c0-0.3-0.3-0.6-0.6-0.6H24.5c-0.3,0-0.6,0.3-0.6,0.6v3.3     C23.9,54.8,24.1,55,24.5,55z"></path></g></g></g></svg>